<svg version="1.1" xmlns="http://www.w3.org/2000/svg" width="256px" height="256px">
<path d="M0 0 C0.95302671 -0.00367669 1.90605341 -0.00735338 2.88795972 -0.01114148 C6.10152033 -0.02220994 9.31504864 -0.0260275 12.52862549 -0.02983093 C14.82457584 -0.03609317 17.12052518 -0.04273976 19.41647339 -0.04974365 C25.66862101 -0.06717519 31.92076098 -0.07771119 38.1729269 -0.08594918 C42.07629722 -0.09109454 45.97966513 -0.09717047 49.88303375 -0.10346031 C60.68840139 -0.12033291 71.49376607 -0.13496796 82.29914474 -0.14220905 C85.10382844 -0.14411898 87.90851213 -0.14603931 90.7131958 -0.147995 C91.41029479 -0.14847874 92.10739378 -0.14896248 92.82561699 -0.14946087 C104.11850889 -0.15776141 115.41129487 -0.18309815 126.70414051 -0.21557567 C138.29590407 -0.24864129 149.88760831 -0.26632455 161.47941899 -0.26985329 C167.98875832 -0.27220759 174.49793029 -0.28121742 181.00722504 -0.30631447 C187.1303398 -0.3295406 193.25317636 -0.33385029 199.3763237 -0.32355309 C201.62494454 -0.32305629 203.87357883 -0.32941871 206.12215805 -0.34310913 C209.19001025 -0.36074395 212.25685495 -0.35376288 215.32470703 -0.34057617 C216.21634764 -0.35154542 217.10798826 -0.36251466 218.02664828 -0.37381631 C223.48369828 -0.31711396 226.58599682 0.51696112 230.9163208 4.14717102 C235.41431987 9.2530078 236.06508868 12.28566972 236.06349182 18.94007874 C236.06716851 19.75426466 236.0708452 20.56845059 236.0746333 21.40730882 C236.08569626 24.15100614 236.08951839 26.89466564 236.09332275 29.63838196 C236.09958543 31.59936138 236.10623206 33.56033961 236.11323547 35.52131653 C236.13066339 40.86026953 236.14120211 46.19921357 236.149441 51.53818798 C236.15458735 54.87202549 236.16066325 58.2058602 236.16695213 61.53969574 C236.18600919 71.96533281 236.20023924 82.39096277 236.2085641 92.81661391 C236.21833947 104.86080477 236.24466473 116.904812 236.285065 128.94893813 C236.31520161 138.25175693 236.33003065 147.55452301 236.33334512 156.85738969 C236.3356984 162.41658811 236.34469509 167.97559047 236.36980629 173.53473663 C236.39304902 178.76486125 236.39733549 183.99466017 236.38704491 189.224823 C236.38654851 191.14448376 236.3928994 193.06416035 236.40660095 194.98377228 C236.42426361 197.60501628 236.41724174 200.22508437 236.40406799 202.84632874 C236.42052186 203.98535129 236.42052186 203.98535129 236.43730813 205.14738441 C236.37488668 210.29328708 235.13932557 213.17344379 231.9163208 217.14717102 C226.51998145 222.01703824 222.35010332 222.29114565 215.31402588 222.26069641 C214.43576645 222.26084244 213.55750702 222.26098846 212.65263367 222.26113892 C209.74701475 222.26044174 206.84145978 222.25265841 203.93585205 222.24482727 C201.92231786 222.2429624 199.90878322 222.24153882 197.89524841 222.24053955 C192.59340158 222.23671982 187.29158211 222.22689414 181.98974609 222.21583557 C176.58050914 222.20560979 171.17126776 222.20103942 165.76202393 222.19599915 C155.14677753 222.18527141 144.53155144 222.16820148 133.9163208 222.14717102 C133.9163208 224.78717102 133.9163208 227.42717102 133.9163208 230.14717102 C135.1950708 230.04404602 136.4738208 229.94092102 137.7913208 229.83467102 C144.29050804 229.85517319 149.76498691 232.31244311 154.5881958 236.65107727 C158.39155817 241.29341663 159.75583692 247.21870781 159.9163208 253.14717102 C157.9163208 256.14717102 157.9163208 256.14717102 156.11407471 256.52469444 C155.01458496 256.52639106 155.01458496 256.52639106 153.8928833 256.52812195 C153.05160889 256.53658142 152.21033447 256.54504089 151.34356689 256.55375671 C149.95645508 256.54464767 149.95645508 256.54464767 148.5413208 256.53535461 C147.56888428 256.54061157 146.59644775 256.54586853 145.59454346 256.55128479 C142.36830761 256.56452841 139.14256198 256.55573118 135.9163208 256.54560852 C133.68194483 256.547628 131.44756951 256.55053838 129.2131958 256.55430603 C124.5256321 256.55873531 119.83823964 256.55227885 115.1506958 256.5382843 C109.1310259 256.52119222 103.11175722 256.53103016 97.09210205 256.54900169 C92.47683672 256.55982318 87.86166708 256.55640069 83.24639893 256.54861832 C81.02634636 256.54661179 78.80628522 256.54909137 76.58624268 256.55605698 C73.48770001 256.56364452 70.38981432 256.55210496 67.2913208 256.53535461 C66.36657959 256.54142731 65.44183838 256.5475 64.48907471 256.55375671 C63.64780029 256.54529724 62.80652588 256.53683777 61.9397583 256.52812195 C61.20676514 256.52699087 60.47377197 256.52585979 59.71856689 256.52469444 C57.9163208 256.14717102 57.9163208 256.14717102 55.9163208 253.14717102 C56.07680468 247.21870781 57.44108343 241.29341663 61.2444458 236.65107727 C66.06765469 232.31244311 71.54213356 229.85517319 78.0413208 229.83467102 C79.9594458 229.98935852 79.9594458 229.98935852 81.9163208 230.14717102 C81.9163208 227.50717102 81.9163208 224.86717102 81.9163208 222.14717102 C59.00915964 218.92367487 59.00915964 218.92367487 37.96075439 226.31904602 C28.72869513 233.78208865 20.91190818 242.91240185 13.4619751 252.11201477 C10.39343423 255.77060305 9.96132616 256.00303235 5.2913208 256.64717102 C-0.41230071 256.56480825 -3.29976396 253.03315719 -7.0836792 249.14717102 C-7.82489014 248.42916321 -8.56610107 247.7111554 -9.32977295 246.97138977 C-15.84882239 240.61502605 -15.84882239 240.61502605 -16.5836792 236.02217102 C-15.95225639 231.12864421 -14.06914118 229.29787839 -10.71258545 225.84638977 C-9.00122773 224.22903399 -9.00122773 224.22903399 -8.0836792 222.14717102 C-9.4139917 221.59029602 -9.4139917 221.59029602 -10.7711792 221.02217102 C-15.08042623 218.58297459 -17.8374086 215.63971222 -20.0836792 211.14717102 C-20.18801296 208.54093908 -20.23147577 205.96104201 -20.23085022 203.35426331 C-20.23452691 202.54007738 -20.2382036 201.72589145 -20.2419917 200.88703322 C-20.25305465 198.1433359 -20.25687679 195.39967641 -20.26068115 192.65596008 C-20.26694383 190.69498066 -20.27359045 188.73400243 -20.28059387 186.77302551 C-20.29802178 181.43407251 -20.30856051 176.09512847 -20.3167994 170.75615406 C-20.32194575 167.42231655 -20.32802165 164.08848184 -20.33431053 160.7546463 C-20.35336759 150.32900923 -20.36759764 139.90337927 -20.3759225 129.47772813 C-20.38569787 117.43353727 -20.41202313 105.38953005 -20.45242339 93.34540391 C-20.48256001 84.04258511 -20.49738905 74.73981903 -20.50070351 65.43695235 C-20.5030568 59.87775393 -20.51205349 54.31875157 -20.53716469 48.75960541 C-20.56040742 43.52948079 -20.56469388 38.29968187 -20.55440331 33.06951904 C-20.55390691 31.14985828 -20.5602578 29.23018169 -20.57395935 27.31056976 C-20.591622 24.68932576 -20.58460014 22.06925767 -20.57142639 19.44801331 C-20.58239564 18.68866493 -20.59336488 17.92931656 -20.60466653 17.14695764 C-20.54225063 12.00151277 -19.31044146 9.11824721 -16.0836792 5.14717102 C-10.60302342 0.31897426 -7.14764869 -0.00146326 0 0 Z M-9.0836792 11.14717102 C-11.5966291 14.57957216 -11.33022649 18.01572902 -11.32418823 22.15797424 C-11.32589708 22.86376295 -11.32760593 23.56955165 -11.32936656 24.2967279 C-11.33266046 26.66136695 -11.32165956 29.02572217 -11.31072998 31.39033508 C-11.31016584 33.08548475 -11.31048247 34.78063491 -11.31161499 36.4757843 C-11.31218941 41.07874915 -11.30042063 45.68161001 -11.28646708 50.28455067 C-11.27397461 55.09452603 -11.27279039 59.90450371 -11.27041626 64.7144928 C-11.26419713 73.8233694 -11.24778044 82.93219806 -11.22771728 92.04105353 C-11.20537177 102.41095437 -11.19436824 112.78085748 -11.18432641 123.15077639 C-11.1634146 144.4829347 -11.12823019 165.81504984 -11.0836792 187.14717102 C-5.64273048 187.44274269 -0.20659679 187.65508769 5.24055481 187.79605103 C7.08621207 187.85488288 8.93133283 187.93506698 10.77503967 188.03829956 C21.00199189 188.59590613 28.8888538 188.65703844 36.85577393 181.61006165 C42.02225877 176.78681553 46.24775706 171.1854332 50.58380127 165.62519836 C53.51271364 162.51357386 55.90547115 161.60862324 60.00054932 160.71870422 C63.02952849 159.81506713 64.30420139 157.74058051 65.9163208 155.14717102 C64.79172409 153.37608155 63.66662877 151.60530866 62.5413208 149.83467102 C61.91483643 148.84853821 61.28835205 147.8624054 60.6428833 146.84638977 C59.41980467 144.93429173 58.1753852 143.03576762 56.9163208 141.14717102 C56.16866455 141.76205383 55.4210083 142.37693665 54.6506958 143.01045227 C53.66585205 143.81869446 52.6810083 144.62693665 51.6663208 145.45967102 C50.69178955 146.26017883 49.7172583 147.06068665 48.7131958 147.88545227 C47.79022705 148.63181946 46.8672583 149.37818665 45.9163208 150.14717102 C45.24085205 150.73885071 44.5653833 151.3305304 43.8694458 151.94013977 C41.19748399 153.59141217 40.02037089 153.75173892 36.9163208 153.14717102 C34.37914453 151.59408334 32.1723212 149.70396803 29.9163208 147.77217102 C28.58002761 146.66425771 27.24277081 145.55750573 25.90460205 144.45185852 C25.23638428 143.89466125 24.5681665 143.33746399 23.87969971 142.76338196 C21.0097077 140.40086678 18.06242196 138.14691749 15.1038208 135.89717102 C14.05968018 135.09150696 13.01553955 134.2858429 11.9397583 133.45576477 C9.96228371 131.94583262 7.96788855 130.45774335 5.9553833 128.99482727 C-1.45424874 123.46414203 -1.45424874 123.46414203 -2.7086792 119.14717102 C-2.8324292 118.15717102 -2.9561792 117.16717102 -3.0836792 116.14717102 C2.75142104 115.66757374 5.25683422 116.54850884 9.7288208 120.27217102 C10.84947378 121.18286993 11.97059618 122.0929914 13.09210205 123.00263977 C13.69618896 123.50199036 14.30027588 124.00134094 14.92266846 124.51582336 C18.70013549 127.60681463 22.56458873 130.5871868 26.4163208 133.58467102 C27.18178223 134.18746887 27.94724365 134.79026672 28.73590088 135.41133118 C32.3477648 138.23974078 35.89035754 140.91851278 39.9163208 143.14717102 C42.29977723 141.3437992 44.64297188 139.51047524 46.9788208 137.64717102 C47.65493408 137.14185852 48.33104736 136.63654602 49.02764893 136.11592102 C50.94903254 134.55540641 52.49567352 133.17711 53.9163208 131.14717102 C53.87393605 128.06216643 53.61875972 126.0420058 52.9163208 123.14717102 C51.93625212 102.97598995 57.05824846 86.48617388 70.1038208 71.02217102 C80.17318008 60.16140725 95.64401396 52.53785857 110.54522705 51.81123352 C130.22017434 51.44853428 147.07867721 56.11463224 161.79302979 69.79316711 C166.41705723 74.34290357 169.80705726 79.4869976 172.9163208 85.14717102 C178.56058849 80.46362975 183.92212541 75.52640642 188.9163208 70.14717102 C188.9163208 69.81717102 188.9163208 69.48717102 188.9163208 69.14717102 C188.21764893 69.08658508 187.51897705 69.02599915 186.7991333 68.96357727 C185.88905518 68.87978821 184.97897705 68.79599915 184.0413208 68.70967102 C183.13639893 68.62846008 182.23147705 68.54724915 181.2991333 68.46357727 C178.9163208 68.14717102 178.9163208 68.14717102 176.9163208 67.14717102 C176.9163208 65.16717102 176.9163208 63.18717102 176.9163208 61.14717102 C181.02816993 59.09124646 186.33466368 59.91808094 190.8538208 59.89717102 C192.51961182 59.86623352 192.51961182 59.86623352 194.21905518 59.83467102 C195.28317627 59.82951477 196.34729736 59.82435852 197.44366455 59.81904602 C198.42069336 59.80970032 199.39772217 59.80035461 200.40435791 59.79072571 C202.9163208 60.14717102 202.9163208 60.14717102 204.74005127 61.29389954 C206.43069465 63.95759274 206.25519426 65.99081814 206.20928955 69.12763977 C206.19962158 70.29101868 206.18995361 71.45439758 206.17999268 72.6530304 C206.15485596 73.8679718 206.12971924 75.08291321 206.1038208 76.33467102 C206.09028564 77.56121399 206.07675049 78.78775696 206.06280518 80.0514679 C206.02740821 83.08380766 205.9780284 86.11527098 205.9163208 89.14717102 C203.6063208 89.14717102 201.2963208 89.14717102 198.9163208 89.14717102 C197.63185161 86.57823264 197.58654936 84.38140765 197.3538208 81.52217102 C197.27003174 80.5192804 197.18624268 79.51638977 197.09991455 78.48310852 C197.03932861 77.71224915 196.97874268 76.94138977 196.9163208 76.14717102 C195.34959586 77.42903688 193.79466076 78.72650952 192.27960205 80.06904602 C190.99751086 81.1964386 189.70665295 82.31533035 188.37481689 83.38349915 C182.46172638 88.14168376 182.46172638 88.14168376 177.9163208 94.14717102 C177.54842895 97.96349491 178.12798426 100.80235304 179.0335083 104.51826477 C182.43054841 118.48220399 179.10995256 134.48356398 172.2678833 146.97138977 C168.75269562 152.63023236 164.81133894 157.61032494 159.9163208 162.14717102 C159.45096924 162.60607727 158.98561768 163.06498352 158.50616455 163.53779602 C146.76637599 174.49877797 130.79449071 179.54013067 114.9319458 179.36982727 C111.15251463 179.09077601 107.4537923 178.5093634 103.7288208 177.83467102 C103.06374512 177.71704407 102.39866943 177.59941711 101.71343994 177.47822571 C98.32062869 176.81896905 95.29385737 175.93712289 92.17803955 174.47920227 C89.15612139 172.96696617 89.15612139 172.96696617 86.67803955 173.29560852 C84.70109496 174.2512048 83.31294166 175.24913451 81.7288208 176.77217102 C81.21964111 177.23881165 80.71046143 177.70545227 80.18585205 178.18623352 C78.33090841 180.7510318 78.33090841 180.7510318 77.9163208 187.14717102 C127.0863208 187.14717102 176.2563208 187.14717102 226.9163208 187.14717102 C226.97456644 156.67451995 226.97456644 156.67451995 227.01397705 126.20185852 C227.02585568 113.77964125 227.03983859 101.35745106 227.06719971 88.93525696 C227.08711499 79.88923553 227.10003282 70.84323603 227.10449779 61.79719329 C227.10710833 57.00603126 227.11325683 52.21493194 227.12778091 47.42378998 C227.14133542 42.91605325 227.14554776 38.40840519 227.14253616 33.90065002 C227.14308728 32.24461638 227.14707741 30.58857983 227.15473175 28.93256378 C227.1646597 26.6742577 227.16229764 24.41628786 227.15682983 22.15797424 C227.15867342 20.89327427 227.16051701 19.6285743 227.16241646 18.32555008 C226.92555732 15.26646267 226.71458123 13.60338838 224.9163208 11.14717102 C222.15498526 9.49977232 220.10610471 8.89701055 216.90577698 8.89548874 C216.11303218 8.89027324 215.32028738 8.88505775 214.50352001 8.87968421 C213.63854554 8.88414565 212.77357107 8.8886071 211.88238525 8.89320374 C210.95890698 8.89008375 210.03542871 8.88696377 209.08396626 8.88374925 C205.98244703 8.87575734 202.88112281 8.88209759 199.77960205 8.88838196 C197.55892827 8.88567263 195.3382554 8.88211203 193.11758423 8.87776184 C187.08053263 8.86862869 181.04354925 8.87218593 175.00649643 8.87852001 C168.69559288 8.8835752 162.38469527 8.8788899 156.0737915 8.87574768 C144.79537661 8.87187325 133.51699641 8.87809782 122.23858845 8.88826635 C112.01103331 8.89720194 101.78352356 8.89564992 91.55596924 8.88642883 C79.68111956 8.87572758 67.80629748 8.87174083 55.93144131 8.87765336 C49.64470263 8.88077523 43.35799523 8.88117643 37.07125854 8.87458038 C31.16157536 8.86881332 25.25197811 8.87279214 19.34230423 8.8843689 C17.17025521 8.8870189 14.99819898 8.88624462 12.8261528 8.88184357 C9.8674222 8.87640016 6.90896914 8.88320769 3.95025635 8.89320374 C3.08528188 8.88874229 2.22030741 8.88428085 1.32912159 8.87968421 C0.53637679 8.8848997 -0.25636801 8.8901152 -1.07313538 8.89548874 C-2.09740615 8.8959758 -2.09740615 8.8959758 -3.14236927 8.89647269 C-5.47591452 9.1978238 -7.07009331 9.94587595 -9.0836792 11.14717102 Z M74.67803955 78.73310852 C66.79111584 88.56917377 61.67189931 99.43725334 61.9163208 112.14717102 C64.75875629 110.83850192 66.97366549 109.39832708 69.3069458 107.31904602 C69.93004639 106.7689386 70.55314697 106.21883118 71.19512939 105.65205383 C71.84562256 105.0729425 72.49611572 104.49383118 73.1663208 103.89717102 C74.51664679 102.7186694 75.86819594 101.54156769 77.2210083 100.36592102 C79.27326724 98.5800957 81.32113591 96.79020945 83.3616333 94.99092102 C87.23222876 91.79415392 90.45959698 90.39744751 95.4475708 89.76435852 C102.71739957 90.8916421 108.40552924 95.8500386 113.8538208 100.45967102 C115.24778583 101.61660359 116.64231377 102.77285826 118.03741455 103.92842102 C118.70112061 104.48142883 119.36482666 105.03443665 120.04864502 105.60420227 C123.60218165 108.53993449 127.25380403 111.34941515 130.9163208 114.14717102 C135.20699626 112.49480451 138.0592761 109.25665032 141.2131958 106.04560852 C141.80682922 105.4491452 142.40046265 104.85268188 143.01208496 104.23814392 C144.90158707 102.33747292 146.78400472 100.42995628 148.6663208 98.52217102 C149.94841145 97.23004634 151.23095842 95.93837426 152.51397705 94.64717102 C155.65340512 91.48572623 158.78649881 88.31812493 161.9163208 85.14717102 C152.59855803 72.33768285 141.82326705 64.07918667 126.05303955 60.61592102 C107.0638536 57.77818464 87.35509001 64.08702231 74.67803955 78.73310852 Z M165.9163208 94.14717102 C165.03371582 95.05072327 164.15111084 95.95427551 163.24176025 96.88520813 C159.96258847 100.23681408 156.67016828 103.57513668 153.37359619 106.90962219 C151.94904967 108.35427614 150.52811486 109.80250085 149.11090088 111.25434875 C147.07238191 113.34142089 145.02119114 115.41527905 142.96710205 117.48701477 C142.3366951 118.13806686 141.70628815 118.78911896 141.05677795 119.4598999 C138.47779416 122.04018178 136.60534543 123.89215033 133.15313721 125.1698761 C129.62822643 125.13409606 127.55247137 123.071981 124.9788208 120.89717102 C124.42178467 120.44769104 123.86474854 119.99821106 123.29083252 119.53511047 C122.10388826 118.57706037 120.92170921 117.61308149 119.74395752 116.64375305 C117.30453391 114.64620206 114.82843045 112.69755121 112.34771729 110.75166321 C111.17924144 109.83507532 110.01321242 108.91535586 108.85015869 107.99189758 C107.76444039 107.13260562 106.67360143 106.27973943 105.57745361 105.43379211 C104.41261283 104.53157123 103.26195033 103.61088646 102.12237549 102.67695618 C98.63831646 99.90327232 98.63831646 99.90327232 94.3928833 98.99092102 C90.85879367 100.64090609 88.15215825 103.05184144 85.2913208 105.64717102 C84.05263648 106.74063819 82.81304187 107.83307499 81.5725708 108.92451477 C80.95897705 109.46833801 80.3453833 110.01216125 79.7131958 110.57246399 C77.1195565 112.84542235 74.46355524 115.02950126 71.7913208 117.20967102 C70.94311768 117.90189758 70.09491455 118.59412415 69.2210083 119.30732727 C66.9163208 121.14717102 66.9163208 121.14717102 64.5960083 122.60029602 C62.66707637 124.02378367 62.66707637 124.02378367 62.7444458 126.40888977 C62.95327393 127.60965149 62.95327393 127.60965149 63.1663208 128.83467102 C63.29522705 129.64291321 63.4241333 130.4511554 63.5569458 131.28388977 C63.67553955 131.89877258 63.7941333 132.5136554 63.9163208 133.14717102 C68.77638421 130.08159256 72.99840835 126.58142116 77.2913208 122.77217102 C78.62082787 121.61451601 79.95154425 120.45824826 81.2835083 119.30342102 C83.33867754 117.52052228 85.38637749 115.73129532 87.4241333 113.92842102 C88.08155518 113.38185852 88.73897705 112.83529602 89.4163208 112.27217102 C89.9422583 111.82099915 90.4681958 111.36982727 91.0100708 110.90498352 C94.30000187 109.59710109 96.53651014 110.24847267 99.9163208 111.14717102 C102.62961299 112.8239988 104.96230199 114.8570323 107.3538208 116.95967102 C108.75163811 118.13773691 110.15143781 119.31345395 111.55303955 120.48701477 C112.62497559 121.39169495 112.62497559 121.39169495 113.71856689 122.31465149 C117.30274072 125.30318834 120.9651213 128.18052219 124.6663208 131.02217102 C125.33333008 131.55173401 126.00033936 132.081297 126.68756104 132.62690735 C129.92915738 135.34153029 129.92915738 135.34153029 133.90562439 135.96604919 C136.25542941 135.00906532 137.59532889 133.88090709 139.41558838 132.11543274 C140.41100395 131.15840958 140.41100395 131.15840958 141.42652893 130.18205261 C142.13085556 129.48733856 142.83518219 128.79262451 143.56085205 128.07685852 C144.29003342 127.3624057 145.01921478 126.64795288 145.77049255 125.91184998 C147.30849784 124.39779018 148.84228129 122.87943157 150.37213135 121.35713196 C152.71861491 119.03228281 155.0927616 116.73836448 157.46905518 114.44404602 C158.95978956 112.96930293 160.4487824 111.4927969 161.93585205 110.01435852 C163.00752373 108.99050552 163.00752373 108.99050552 164.10084534 107.94596863 C168.19805028 103.85808136 168.19805028 103.85808136 168.9776001 98.2179718 C168.27892235 95.03710327 168.27892235 95.03710327 165.9163208 94.14717102 Z M167.25177002 116.77754211 C166.07323277 117.99032865 164.89644549 119.20481715 163.7210083 120.42060852 C162.43517471 121.73372057 161.14869521 123.04620039 159.8616333 124.35810852 C157.82799622 126.43486851 155.79833843 128.5149013 153.77960205 130.6061554 C151.83414958 132.61849474 149.87292637 134.6143011 147.9085083 136.60810852 C147.01589798 137.54413406 147.01589798 137.54413406 146.10525513 138.49906921 C142.31397807 142.31404216 139.38093988 144.19705112 133.9163208 145.14717102 C125.02105628 144.12079434 118.12264741 136.87707671 111.31085205 131.54170227 C110.10102661 130.59569153 110.10102661 130.59569153 108.86676025 129.63056946 C107.24798102 128.36160911 105.63314361 127.08760228 104.02252197 125.80830383 C103.27591309 125.22016907 102.5293042 124.6320343 101.7600708 124.02607727 C101.09169189 123.49570862 100.42331299 122.96533997 99.73468018 122.41889954 C97.83526866 120.96205763 97.83526866 120.96205763 94.9163208 120.14717102 C92.59795992 121.58890058 92.59795992 121.58890058 90.1663208 123.77217102 C89.20596924 124.58814758 88.24561768 125.40412415 87.25616455 126.24482727 C86.14233485 127.2116437 85.02909897 128.17914449 83.9163208 129.14717102 C82.56378646 130.31291887 81.21090625 131.47826553 79.85772705 132.64326477 C76.19978891 135.79894715 72.55538194 138.96974517 68.9163208 142.14717102 C76.48149082 155.74160181 87.15270533 163.85172351 101.9475708 168.83076477 C115.75086564 172.56486505 130.8967286 170.42851032 143.40460205 163.72138977 C157.4907845 154.8928804 166.33410465 143.01624981 170.4241333 126.90888977 C171.18551769 122.63667734 171.16937722 118.46787507 170.9163208 114.14717102 C169.41090468 114.03008308 169.41090468 114.03008308 167.25177002 116.77754211 Z M70.2913208 164.64717102 C69.8375708 165.14217102 69.3838208 165.63717102 68.9163208 166.14717102 C70.28615583 169.30832878 70.9053846 170.13988022 73.9163208 172.14717102 C75.2363208 170.49717102 76.5563208 168.84717102 77.9163208 167.14717102 C76.62666904 165.77154248 75.28942788 164.43950709 73.9163208 163.14717102 C71.79267599 162.92107765 71.79267599 162.92107765 70.2913208 164.64717102 Z M56.3538208 172.64717102 C55.8794458 173.14217102 55.4050708 173.63717102 54.9163208 174.14717102 C56.39353502 177.59918741 58.35426081 179.79679038 61.0413208 182.39717102 C61.76577393 183.10357727 62.49022705 183.80998352 63.2366333 184.53779602 C63.79093018 185.06888977 64.34522705 185.59998352 64.9163208 186.14717102 C66.2363208 185.15717102 67.5563208 184.16717102 68.9163208 183.14717102 C67.44283372 179.72189215 65.50724234 177.49762044 62.8538208 174.89717102 C62.14096924 174.19076477 61.42811768 173.48435852 60.69366455 172.75654602 C58.47918904 170.61803599 58.47918904 170.61803599 56.3538208 172.64717102 Z M43.42845154 185.51062012 C42.69046074 186.25400383 42.69046074 186.25400383 41.93756104 187.0124054 C41.42047577 187.52934464 40.9033905 188.04628387 40.37063599 188.57888794 C38.65301623 190.29720731 36.93897074 192.0190475 35.22491455 193.74092102 C34.03828821 194.92941136 32.85144167 196.11768189 31.66438293 197.30574036 C28.5336691 200.44028076 25.40596921 203.5778121 22.27886963 206.71595764 C19.09015965 209.91487877 15.89863317 213.1109871 12.70733643 216.30732727 C6.44089134 222.58451212 0.17762397 228.86485756 -6.0836792 235.14717102 C-5.13420361 236.26394594 -4.18343023 237.37961756 -3.2321167 238.49482727 C-2.70279541 239.11623596 -2.17347412 239.73764465 -1.62811279 240.37788391 C0.13297474 242.39536752 1.98620672 244.2912921 3.9163208 246.14717102 C7.69933307 244.57773418 10.08888627 242.21615825 12.96026611 239.33027649 C13.44852875 238.84230591 13.93679138 238.35433533 14.43984985 237.85157776 C16.04617042 236.24386827 17.64529793 234.62920001 19.2444458 233.01435852 C20.35930397 231.89576867 21.47460567 230.77762073 22.59033203 229.65989685 C25.52102689 226.72157777 28.44566502 223.77730147 31.36907959 220.83174133 C34.35514805 217.8251884 37.34690939 214.82431221 40.3381958 211.82295227 C46.20315536 205.93656416 52.06172812 200.04387002 57.9163208 194.14717102 C56.31908899 190.76229717 54.53811479 188.52787656 51.8538208 185.89717102 C50.78454346 184.83756165 50.78454346 184.83756165 49.69366455 183.75654602 C46.59849575 180.95388767 46.08058854 182.86663334 43.42845154 185.51062012 Z M-11.0836792 197.14717102 C-11.93254736 206.30598658 -11.93254736 206.30598658 -9.2711792 210.20967102 C-6.52823858 212.63913271 -4.48355901 213.08109541 -0.89227295 213.67451477 C4.71522365 212.89809216 7.12002866 209.75125368 10.8538208 205.70967102 C11.53766846 205.00262024 12.22151611 204.29556946 12.92608643 203.5670929 C16.19520404 200.7392275 16.19520404 200.7392275 17.9163208 197.14717102 C8.3463208 197.14717102 -1.2236792 197.14717102 -11.0836792 197.14717102 Z M54.92329407 208.81976318 C52.83023969 211.6422505 52.83023969 211.6422505 52.9163208 213.14717102 C74.60403951 213.21722973 96.29173957 213.27014382 117.97954845 213.30260754 C128.04941273 213.31808116 138.11920672 213.33918018 148.18902588 213.37348938 C156.96514266 213.40337653 165.74120855 213.42274242 174.51737481 213.4294365 C179.16496443 213.43334992 183.81240842 213.44255731 188.4599514 213.46436119 C192.83393565 213.48471552 197.20771422 213.49100695 201.58174133 213.48649406 C203.18737213 213.48731974 204.79300977 213.49329171 206.39859962 213.50478745 C208.59101334 213.51971543 210.78265069 213.51612401 212.9750824 213.50793457 C214.20198886 213.51069995 215.42889532 213.51346533 216.69298077 213.51631451 C220.24519836 213.10950729 222.08664152 212.29728962 224.9163208 210.14717102 C227.1254608 206.83346102 227.14113633 205.80256892 227.0413208 201.95967102 C227.02327393 201.05861633 227.00522705 200.15756165 226.9866333 199.22920227 C226.96343018 198.54213196 226.94022705 197.85506165 226.9163208 197.14717102 C206.44494911 196.79581838 185.97419414 196.53179884 165.50042629 196.36998844 C155.99260239 196.29283808 146.48665821 196.18778255 136.9800415 196.01557922 C128.68797692 195.86544875 120.39727408 195.76915531 112.10388809 195.7358436 C107.71701669 195.71638619 103.33403847 195.67111987 98.94842339 195.56122017 C73.95169981 194.34988377 73.95169981 194.34988377 54.92329407 208.81976318 Z M90.9163208 222.14717102 C90.9163208 224.78717102 90.9163208 227.42717102 90.9163208 230.14717102 C102.1363208 230.14717102 113.3563208 230.14717102 124.9163208 230.14717102 C124.9163208 227.50717102 124.9163208 224.86717102 124.9163208 222.14717102 C113.6963208 222.14717102 102.4763208 222.14717102 90.9163208 222.14717102 Z M69.9163208 242.14717102 C68.4313208 244.62217102 68.4313208 244.62217102 66.9163208 247.14717102 C93.9763208 247.14717102 121.0363208 247.14717102 148.9163208 247.14717102 C145.74038301 241.84573747 145.74038301 241.84573747 140.43292236 239.66590881 C135.10488078 238.56765926 129.70968652 238.72232661 124.2913208 238.74873352 C122.98985107 238.74586334 121.68838135 238.74299316 120.34747314 238.74003601 C117.60403655 238.7356351 114.86089475 238.74197079 112.11749268 238.75605774 C108.62074308 238.7731488 105.12468452 238.76329549 101.62796021 238.74534035 C98.26569335 238.73182387 94.90360721 238.74131855 91.5413208 238.74873352 C90.29528076 238.74266083 89.04924072 238.73658813 87.76544189 238.73033142 C81.16083799 238.78349391 75.79875966 238.99500347 69.9163208 242.14717102 Z " fill="#66fcf1" transform="translate(20.08367919921875,-0.1471710205078125)"/>
<path d="M0 0 C9.32902276 5.50964933 14.92397124 11.3788797 18.0546875 21.82421875 C20.4251307 31.60229694 19.54305445 40.61478346 14.6171875 49.44921875 C8.97876822 58.24133017 1.64971888 63.10195934 -8.2578125 66.07421875 C-19.60976601 67.2094141 -29.26490616 65.31947685 -38.53125 58.34765625 C-44.60555009 52.82750284 -49.66041435 44.57819022 -50.19140625 36.2734375 C-50.21533491 34.85306553 -50.2160193 33.43214134 -50.1953125 32.01171875 C-50.1806897 30.88914673 -50.1806897 30.88914673 -50.16577148 29.74389648 C-49.83954281 19.52685677 -46.30641109 12.93292521 -39.2734375 5.52734375 C-28.85888412 -3.59347629 -12.58649922 -6.0389769 0 0 Z M-33.5078125 13.8984375 C-38.40441217 19.15004065 -40.38809252 24.81187894 -41.1328125 31.88671875 C-40.37044418 38.87509501 -37.62728018 45.19254896 -32.7578125 50.32421875 C-25.53283783 55.89406974 -18.82216269 57.28426684 -9.7578125 56.32421875 C-6.79540888 55.26257489 -4.47088209 53.9622985 -1.7578125 52.32421875 C-5.91337431 47.27015708 -10.38029241 42.62236692 -15.06176758 38.05737305 C-19.09743895 34.09473279 -19.87595839 32.26809225 -20.07421875 26.66015625 C-20.11611328 25.53867187 -20.15800781 24.4171875 -20.20117188 23.26171875 C-20.24048828 22.08609375 -20.27980469 20.91046875 -20.3203125 19.69921875 C-20.36349609 18.51585937 -20.40667969 17.3325 -20.45117188 16.11328125 C-20.55748676 13.18371547 -20.65951892 10.25406287 -20.7578125 7.32421875 C-25.89760027 7.32421875 -29.77210305 10.53796672 -33.5078125 13.8984375 Z M-10.7578125 7.32421875 C-10.7578125 13.59421875 -10.7578125 19.86421875 -10.7578125 26.32421875 C-4.4878125 26.32421875 1.7821875 26.32421875 8.2421875 26.32421875 C7.16081671 19.83599404 5.76672898 16.88623055 1.2421875 12.32421875 C-2.5794168 9.62240311 -6.00615346 7.32421875 -10.7578125 7.32421875 Z M-3.7578125 36.32421875 C-2.365625 37.99484375 -2.365625 37.99484375 -0.9453125 39.69921875 C-0.42324219 40.32570313 0.09882812 40.9521875 0.63671875 41.59765625 C2.32444489 43.54632355 2.32444489 43.54632355 5.2421875 45.32421875 C5.9112651 44.01294614 6.57738556 42.70016425 7.2421875 41.38671875 C7.6134375 40.65582031 7.9846875 39.92492188 8.3671875 39.171875 C9.31352153 37.51431803 9.31352153 37.51431803 9.2421875 36.32421875 C4.9521875 36.32421875 0.6621875 36.32421875 -3.7578125 36.32421875 Z " fill="#66fcf1" transform="translate(66.7578125,19.67578125)"/>
<path d="M0 0 C2.375 0.75 2.375 0.75 3.375 1.75 C3.50074967 4.39283899 3.56364406 7.00814815 3.578125 9.65234375 C3.58382507 10.44524307 3.58952515 11.2381424 3.59539795 12.05506897 C3.60486098 13.73551086 3.61138709 15.41597142 3.61523438 17.09643555 C3.62494664 19.67334177 3.6559594 22.24945285 3.6875 24.82617188 C3.69402907 26.45572441 3.69927992 28.08528267 3.703125 29.71484375 C3.7154718 30.48884018 3.7278186 31.26283661 3.74053955 32.06028748 C3.73144531 34.23413086 3.73144531 34.23413086 3.375 37.75 C0.375 39.75 0.375 39.75 -2.25 39.5 C-3.03375 39.2525 -3.8175 39.005 -4.625 38.75 C-6.14244948 35.71510104 -5.8085738 32.55324014 -5.828125 29.22265625 C-5.83382507 28.47793564 -5.83952515 27.73321503 -5.84539795 26.96592712 C-5.85484791 25.38981549 -5.86138192 23.81368409 -5.86523438 22.23754883 C-5.87494832 19.82533397 -5.90597361 17.41396823 -5.9375 15.00195312 C-5.94402932 13.47135923 -5.94928007 11.94075924 -5.953125 10.41015625 C-5.9654718 9.68820572 -5.9778186 8.96625519 -5.99053955 8.22242737 C-5.97738143 5.26721479 -5.95825735 3.23998907 -4.26855469 0.75561523 C-2.625 -0.25 -2.625 -0.25 0 0 Z " fill="#66fcf1" transform="translate(218.625,140.25)"/>
<path d="M0 0 C2.5 0.25 2.5 0.25 4.5 2.25 C4.96045489 6.73257952 4.8240002 11.24652035 4.8125 15.75 C4.82861328 17.01199219 4.84472656 18.27398437 4.86132812 19.57421875 C4.86197266 20.77691406 4.86261719 21.97960937 4.86328125 23.21875 C4.86626221 24.32669922 4.86924316 25.43464844 4.87231445 26.57617188 C4.74945068 27.45853516 4.62658691 28.34089844 4.5 29.25 C1.5 31.25 1.5 31.25 -1.125 31 C-1.90875 30.7525 -2.6925 30.505 -3.5 30.25 C-5.67425477 25.90149046 -4.68496474 20.02642634 -4.6875 15.25 C-4.69974609 14.03570312 -4.71199219 12.82140625 -4.72460938 11.5703125 C-4.72654297 10.41273438 -4.72847656 9.25515625 -4.73046875 8.0625 C-4.73457764 6.99644531 -4.73868652 5.93039063 -4.74291992 4.83203125 C-4.40977258 1.2909596 -3.55224273 0.35522427 0 0 Z " fill="#66fcf1" transform="translate(234.5,148.75)"/>
<path d="M0 0 C1.11375 0.556875 1.11375 0.556875 2.25 1.125 C2.33687496 4.24982562 2.39034568 7.37434246 2.4375 10.5 C2.47520508 11.83417969 2.47520508 11.83417969 2.51367188 13.1953125 C2.52817383 14.47148437 2.52817383 14.47148437 2.54296875 15.7734375 C2.56653442 16.95172119 2.56653442 16.95172119 2.59057617 18.15380859 C2.47818604 18.80430176 2.3657959 19.45479492 2.25 20.125 C-0.75 22.125 -0.75 22.125 -3.375 21.8125 C-5.75 21.125 -5.75 21.125 -6.75 20.125 C-6.83651611 18.70929877 -6.85704904 17.289405 -6.84765625 15.87109375 C-6.84443359 15.01708984 -6.84121094 14.16308594 -6.83789062 13.28320312 C-6.82951172 12.38537109 -6.82113281 11.48753906 -6.8125 10.5625 C-6.80798828 9.66080078 -6.80347656 8.75910156 -6.79882812 7.83007812 C-6.78700225 5.59498686 -6.7705222 3.36002563 -6.75 1.125 C-3.09375 -0.984375 -3.09375 -0.984375 0 0 Z " fill="#66fcf1" transform="translate(202.75,157.875)"/>
</svg>