<svg version="1.1" xmlns="http://www.w3.org/2000/svg" width="200px" height="200px">
<path d="M0 0 C1.08113571 -0.00137466 2.16227142 -0.00274933 3.27616882 -0.00416565 C4.46227753 -0.00057037 5.64838623 0.0030249 6.87043762 0.00672913 C8.11933273 0.0065831 9.36822784 0.00643707 10.65496826 0.00628662 C14.08032478 0.00686439 17.50562121 0.01188367 20.93096709 0.01886058 C24.51042361 0.02510696 28.08988091 0.02569893 31.66934204 0.02688599 C38.44786601 0.02999551 45.22637387 0.0382038 52.00489074 0.04823548 C59.72186083 0.05940837 67.43883169 0.06491003 75.15580785 0.06993091 C91.03050172 0.08038671 106.90517951 0.09797884 122.77986145 0.12025452 C122.11986145 2.43025452 121.45986145 4.74025452 120.77986145 7.12025452 C120.14540761 7.12079928 119.51095377 7.12134405 118.85727406 7.12190533 C103.4167202 7.13687525 87.97652325 7.17933019 72.53614521 7.25234509 C65.06925505 7.28699251 57.60254945 7.31235025 50.13557434 7.31581116 C43.62702779 7.31885143 37.11880995 7.33934993 30.61039037 7.38077909 C27.1643954 7.40210567 23.7188677 7.41471186 20.27280617 7.40640831 C16.42498381 7.39746389 12.5780008 7.42749814 8.7303009 7.46083069 C7.58878571 7.45220505 6.44727051 7.44357941 5.27116394 7.43469238 C0.63620012 7.50216046 -2.37104813 7.62827935 -6.42582703 9.97767639 C-9.08929001 14.64249652 -8.9234915 18.77120028 -8.87956238 24.06092834 C-8.89528793 25.71525375 -8.89528793 25.71525375 -8.91133118 27.40299988 C-8.94010899 31.04471372 -8.93378594 34.68547845 -8.9271698 38.32728577 C-8.94028307 40.85363966 -8.95558613 43.37998307 -8.97299194 45.90631104 C-9.00882012 51.87382521 -9.02257889 57.84099481 -9.02561635 63.80858296 C-9.03030905 70.60432613 -9.063239 77.39984129 -9.0985142 84.1954838 C-9.17042465 98.17037944 -9.20696158 112.14518889 -9.22013855 126.12025452 C-11.53013855 126.12025452 -13.84013855 126.12025452 -16.22013855 126.12025452 C-16.22013855 93.12025452 -16.22013855 60.12025452 -16.22013855 26.12025452 C-23.5372591 27.37939301 -23.5372591 27.37939301 -26.19311523 29.64888 C-27.83040655 33.58877112 -27.65911046 37.43684746 -27.6525116 41.6622467 C-27.66278539 42.64403522 -27.67305918 43.62582375 -27.68364429 44.63736343 C-27.71352345 47.81401481 -27.72307288 50.99035704 -27.7318573 54.16712952 C-27.74732141 56.12889185 -27.76411791 58.09064414 -27.78227234 60.05238342 C-27.84021783 67.32489634 -27.87235988 74.59759633 -27.90763855 81.87025452 C-28.01076355 98.12275452 -28.11388855 114.37525452 -28.22013855 131.12025452 C29.19986145 131.12025452 86.61986145 131.12025452 145.77986145 131.12025452 C145.77986145 98.45025452 145.77986145 65.78025452 145.77986145 32.12025452 C148.08986145 31.46025452 150.39986145 30.80025452 152.77986145 30.12025452 C152.87339353 45.90613973 152.94388398 61.69194986 152.98711014 77.47804356 C153.00771625 84.80817503 153.03579923 92.1381341 153.08161926 99.46815491 C153.12154715 105.85864265 153.14730845 112.24900551 153.15621543 118.63961452 C153.16142021 122.02198083 153.17361179 125.40398995 153.20278168 128.78624153 C153.23181958 132.56649579 153.23581709 136.34601018 153.23396301 140.12635803 C153.24834412 141.2419812 153.26272522 142.35760437 153.27754211 143.5070343 C153.24337463 149.94544546 152.64864534 153.90057393 148.77986145 159.12025452 C142.47337506 164.44197495 135.43777629 163.63700719 127.5337677 163.51087952 C126.15372542 163.50340844 124.77367245 163.49771961 123.39361572 163.49372864 C119.78156144 163.47854004 116.17016234 163.43931884 112.55836487 163.39491272 C108.86470907 163.35381219 105.1709462 163.33568628 101.47712708 163.31556702 C94.24440824 163.27281616 87.01222705 163.20464942 79.77986145 163.12025452 C80.21298645 164.16826233 80.64611145 165.21627014 81.09236145 166.29603577 C81.6551348 167.67483048 82.2176198 169.05374291 82.77986145 170.43275452 C83.06603333 171.12304749 83.3522052 171.81334045 83.64704895 172.52455139 C84.86896889 175.53571125 85.77986145 177.83912435 85.77986145 181.12025452 C88.41986145 181.12025452 91.05986145 181.12025452 93.77986145 181.12025452 C93.77986145 183.43025452 93.77986145 185.74025452 93.77986145 188.12025452 C70.67986145 188.12025452 47.57986145 188.12025452 23.77986145 188.12025452 C23.77986145 185.81025452 23.77986145 183.50025452 23.77986145 181.12025452 C26.41986145 181.12025452 29.05986145 181.12025452 31.77986145 181.12025452 C31.89200989 180.26173889 32.00415833 179.40322327 32.1197052 178.51869202 C32.80634309 174.98392892 33.91280832 172.04422328 35.34236145 168.74525452 C35.79740051 167.68564514 36.25243958 166.62603577 36.7212677 165.53431702 C37.07060364 164.73767639 37.41993958 163.94103577 37.77986145 163.12025452 C37.01866501 163.12913696 36.25746857 163.13801941 35.47320557 163.14717102 C28.27922747 163.22751282 21.08546869 163.28831768 13.8911581 163.3275032 C10.19297493 163.34832666 6.49516426 163.37654676 2.79719543 163.42201233 C-0.77547779 163.46565963 -4.34779403 163.48943101 -7.92071342 163.49976349 C-9.27982638 163.50712126 -10.63892108 163.52148923 -11.99788094 163.54317474 C-25.7295663 163.75346686 -25.7295663 163.75346686 -31.22013855 159.12025452 C-35.76698457 152.9646463 -35.78737391 147.71901939 -35.72184753 140.22157288 C-35.72725052 139.04025284 -35.7326535 137.8589328 -35.73822021 136.64181519 C-35.7485496 133.41855013 -35.74104652 130.19595786 -35.724509 126.97273707 C-35.71060191 123.59096206 -35.71712487 120.20921643 -35.72064209 116.8274231 C-35.7233394 111.15077615 -35.70990887 105.47434123 -35.68669128 99.79774475 C-35.66007157 93.24416636 -35.65834021 86.69094204 -35.67007965 80.13732809 C-35.68087497 73.81922391 -35.67465749 67.50124723 -35.66052437 61.18315315 C-35.65478101 58.50026481 -35.65483415 55.81747027 -35.65958977 53.13458061 C-35.66250029 49.38601716 -35.64600167 45.63803201 -35.62419128 41.88954163 C-35.62869293 40.7813205 -35.63319458 39.67309937 -35.63783264 38.53129578 C-35.58435935 32.99935209 -35.4308405 28.85106929 -32.22013855 24.12025452 C-28.25024127 20.53766429 -25.90230993 18.98193778 -20.59513855 19.05775452 C-19.36924011 19.07128967 -19.36924011 19.07128967 -18.11857605 19.08509827 C-17.49209167 19.09669983 -16.8656073 19.10830139 -16.22013855 19.12025452 C-16.2665448 18.54017639 -16.31295105 17.96009827 -16.36076355 17.36244202 C-16.62234927 11.70097965 -16.04833233 8.58648059 -12.22013855 4.12025452 C-8.32381867 0.69621583 -5.10418962 -0.00499921 0 0 Z M-28.22013855 138.12025452 C-29.2341788 149.01273243 -29.2341788 149.01273243 -26.34513855 153.30775452 C-22.75319165 156.37147393 -20.53522524 156.25059504 -15.86312866 156.26742554 C-15.20341216 156.27110223 -14.54369566 156.27477891 -13.86398774 156.27856702 C-11.64309729 156.28962099 -9.42225359 156.29345057 -7.20133972 156.29725647 C-5.61311697 156.3035198 -4.02489569 156.31016648 -2.43667603 156.31716919 C1.88571236 156.33459036 6.20808967 156.34513388 10.53050447 156.35337472 C13.22980775 156.35852226 15.92910758 156.36459808 18.62840843 156.37088585 C27.07047074 156.3899406 35.51252428 156.40417142 43.95460397 156.41249782 C53.70601369 156.42227387 63.45719664 156.44860175 73.20852643 156.48899871 C80.74149324 156.51913691 88.27439497 156.53396448 95.80742091 156.53727883 C100.30858359 156.53963185 104.80950407 156.54862482 109.31060219 156.57374001 C113.54514512 156.59698587 117.77928581 156.60126816 122.01387596 156.59097862 C123.56790885 156.59048231 125.1219613 156.59683099 126.67593384 156.61053467 C128.79840637 156.62820409 130.91942753 156.62117384 133.04190063 156.60800171 C134.22933774 156.61039006 135.41677485 156.61277842 136.64019489 156.61523914 C140.42030308 156.01928559 142.07105512 154.76978165 144.77986145 152.12025452 C146.87217543 147.93562656 145.77986145 142.7988108 145.77986145 138.12025452 C88.35986145 138.12025452 30.93986145 138.12025452 -28.22013855 138.12025452 Z M45.77986145 163.12025452 C44.78986145 165.53337952 43.79986145 167.94650452 42.77986145 170.43275452 C42.46661926 171.18854797 42.15337708 171.94434143 41.8306427 172.72303772 C40.63615301 175.67252664 39.77986145 177.91001572 39.77986145 181.12025452 C52.31986145 181.12025452 64.85986145 181.12025452 77.77986145 181.12025452 C76.81358432 173.9188773 76.81358432 173.9188773 71.77986145 163.12025452 C63.19986145 163.12025452 54.61986145 163.12025452 45.77986145 163.12025452 Z " fill="#66fcf1" transform="translate(41.22013854980469,5.8797454833984375)"/>
<path d="M0 0 C0.87537415 0.00359528 1.75074829 0.00719055 2.65264893 0.01089478 C4.02812141 0.01067574 4.02812141 0.01067574 5.43138123 0.01045227 C8.47773564 0.01115177 11.52402973 0.01894589 14.57037354 0.02676392 C16.67644721 0.02862796 18.78252132 0.03005193 20.88859558 0.03105164 C26.44364612 0.03487786 31.99867069 0.04470903 37.55371094 0.05575562 C43.21746469 0.0659675 48.88122262 0.07054878 54.54498291 0.07559204 C65.66673914 0.0863312 76.78847606 0.10340887 87.91021729 0.12442017 C87.91021729 2.43442017 87.91021729 4.74442017 87.91021729 7.12442017 C58.87021729 7.12442017 29.83021729 7.12442017 -0.08978271 7.12442017 C0.24021729 26.92442017 0.57021729 46.72442017 0.91021729 67.12442017 C7.84021729 62.50442017 14.77021729 57.88442017 21.91021729 53.12442017 C29.24791084 54.1726621 30.56965166 54.87376589 35.91021729 59.12442017 C35.29744117 62.0861714 34.65649207 63.50500799 32.91021729 66.12442017 C29.82510901 64.92465584 26.85974687 63.62439461 23.91021729 62.12442017 C23.25424561 62.5788147 22.59827393 63.03320923 21.92242432 63.50137329 C18.96331609 65.54720241 15.99935548 67.58588647 13.03521729 69.62442017 C12.00267822 70.33984985 10.97013916 71.05527954 9.90631104 71.79238892 C8.92017822 72.46914673 7.93404541 73.14590454 6.91802979 73.84317017 C5.5512207 74.78579712 5.5512207 74.78579712 4.15679932 75.74746704 C1.91021729 77.12442017 1.91021729 77.12442017 -0.08978271 77.12442017 C-0.08978271 82.73442017 -0.08978271 88.34442017 -0.08978271 94.12442017 C36.87021729 94.12442017 73.83021729 94.12442017 111.91021729 94.12442017 C112.40489072 79.89830296 112.40489072 79.89830296 105.84576416 70.65371704 C105.18640869 70.12842407 104.52705322 69.6031311 103.84771729 69.06192017 C102.8528833 68.17536743 102.8528833 68.17536743 101.83795166 67.27090454 C100.23028193 65.84829032 98.57494085 64.47982735 96.91021729 63.12442017 C98.42420184 59.33945879 98.92465689 59.11720037 102.91021729 57.12442017 C105.55021729 59.76442017 108.19021729 62.40442017 110.91021729 65.12442017 C111.24021729 59.18442017 111.57021729 53.24442017 111.91021729 47.12442017 C114.22021729 47.12442017 116.53021729 47.12442017 118.91021729 47.12442017 C118.96079873 54.49336832 118.99590062 61.86227195 119.02008057 69.23135376 C119.0301574 71.73983432 119.04381908 74.24830308 119.06109619 76.75674438 C119.08527065 80.35589504 119.09668341 83.95489083 119.10552979 87.55410767 C119.11585236 88.68122162 119.12617493 89.80833557 119.1368103 90.96960449 C119.13696136 92.01053253 119.13711243 93.05146057 119.13726807 94.12393188 C119.14170929 95.04326508 119.14615051 95.96259827 119.15072632 96.90979004 C118.91021729 99.12442017 118.91021729 99.12442017 116.91021729 101.12442017 C114.76438904 101.37610245 114.76438904 101.37610245 112.05157471 101.37838745 C110.511996 101.38684692 110.511996 101.38684692 108.9413147 101.39547729 C107.81085724 101.39142883 106.68039978 101.38738037 105.51568604 101.38320923 C103.73516342 101.38846619 103.73516342 101.38846619 101.91867065 101.39382935 C98.65837353 101.40113796 95.39823805 101.39940455 92.13794327 101.39307117 C88.73024397 101.38801697 85.32255567 101.39270101 81.91485596 101.39584351 C76.19161025 101.39948485 70.46841611 101.39467967 64.74517822 101.38516235 C58.1229562 101.37427745 51.50085731 101.37780291 44.87863827 101.38881516 C39.19877281 101.39788328 33.51894449 101.39917566 27.83907413 101.39393783 C24.4441787 101.39081549 21.0493412 101.39041596 17.65444946 101.3970108 C13.87113003 101.40206631 10.08805004 101.39437935 6.30474854 101.38320923 C5.17429108 101.38725769 4.04383362 101.39130615 2.87911987 101.39547729 C1.85273407 101.38983765 0.82634827 101.384198 -0.23114014 101.37838745 C-1.12636887 101.3776334 -2.0215976 101.37687935 -2.94395447 101.37610245 C-5.08978271 101.12442017 -5.08978271 101.12442017 -7.08978271 99.12442017 C-7.28352897 96.02571167 -7.35189335 93.01665173 -7.33270264 89.91714478 C-7.33460098 88.9626091 -7.33649933 88.00807343 -7.3384552 87.02461243 C-7.34217038 83.85858029 -7.33144893 80.69277578 -7.32025146 77.52676392 C-7.31906006 75.33483406 -7.31860642 73.14290368 -7.31886292 70.95097351 C-7.31729681 66.35340182 -7.30899688 61.75590785 -7.29559326 57.15835571 C-7.27859326 51.25080492 -7.27477913 45.34333956 -7.27553844 39.43576717 C-7.27526717 34.90892209 -7.26979293 30.38209586 -7.262537 25.85525703 C-7.25934418 23.67624619 -7.2573815 21.4972332 -7.2566433 19.31822014 C-7.25448677 16.27954301 -7.24575782 13.24095843 -7.23504639 10.20230103 C-7.23549957 9.29266602 -7.23595276 8.38303101 -7.23641968 7.4458313 C-7.19924623 0.27197012 -7.19455254 0.01248268 0 0 Z " fill="#66fcf1" transform="translate(44.08978271484375,30.875579833984375)"/>
<path d="M0 0 C3.14409409 0.65354765 4.91741079 2.12953412 7.0859375 4.43359375 C8.86183448 7.98538772 8.72648257 11.56445807 8.0859375 15.43359375 C6.45826591 18.73119518 4.26981286 21.45936267 1.9609375 24.30859375 C0.67380049 25.97082886 -0.61263739 27.63360553 -1.8984375 29.296875 C-2.56294922 30.1420166 -3.22746094 30.9871582 -3.91210938 31.85791016 C-6.51123318 35.2019048 -9.00716896 38.61530799 -11.49975586 42.0390625 C-14.27936083 45.85594671 -17.09469338 49.64603211 -19.9140625 53.43359375 C-20.63980469 54.40941406 -21.36554688 55.38523438 -22.11328125 56.390625 C-31.40918906 68.45386805 -43.13307914 80.54310207 -56.9140625 87.43359375 C-58.01468445 90.50335565 -58.96668715 93.58285159 -59.8828125 96.7109375 C-61.79085069 102.85771876 -64.42339714 106.88807365 -69.9765625 110.18359375 C-70.64816406 110.5909375 -71.31976563 110.99828125 -72.01171875 111.41796875 C-75.9934669 113.54374805 -79.28897274 113.56234546 -83.734375 113.56640625 C-84.39363983 113.56736298 -85.05290466 113.5683197 -85.73214722 113.56930542 C-87.12237646 113.5699848 -88.51260891 113.56814742 -89.90283203 113.56396484 C-92.03815764 113.55859603 -94.17327453 113.56392668 -96.30859375 113.5703125 C-97.65885463 113.56965201 -99.00911539 113.56837145 -100.359375 113.56640625 C-101.59187988 113.56527832 -102.82438477 113.56415039 -104.09423828 113.56298828 C-106.9140625 113.43359375 -106.9140625 113.43359375 -107.9140625 112.43359375 C-108.24523367 109.37026038 -108.22649864 107.89545587 -106.4765625 105.30859375 C-105.9609375 104.68984375 -105.4453125 104.07109375 -104.9140625 103.43359375 C-103.74452695 99.9249871 -103.73132608 96.94250187 -103.6015625 93.24609375 C-103.1289643 84.83364503 -101.47593863 79.65673805 -95.4140625 73.74609375 C-92.09664382 70.9733259 -88.98587189 69.64449293 -84.9140625 68.24609375 C-78.53490957 65.81289113 -76.2437794 62.30190036 -72.83203125 56.5546875 C-69.79547686 51.61332914 -65.91134639 47.60643403 -61.9140625 43.43359375 C-60.8621875 42.26957031 -60.8621875 42.26957031 -59.7890625 41.08203125 C-52.5442014 33.35921057 -44.06165795 27.43649902 -35.48681641 21.28759766 C-31.18432517 18.18709296 -26.92689975 15.02576941 -22.6640625 11.87109375 C-20.42893555 10.2197217 -18.19273189 8.57020328 -15.94873047 6.9309082 C-14.61425766 5.94886816 -13.28985242 4.95296615 -11.97705078 3.94213867 C-7.71580526 0.72249286 -5.21725826 -0.29380465 0 0 Z M-5.81079102 8.38305664 C-6.46490967 8.88571045 -7.11902832 9.38836426 -7.79296875 9.90625 C-8.53981934 10.46916748 -9.28666992 11.03208496 -10.05615234 11.61206055 C-10.8548877 12.2337915 -11.65362305 12.85552246 -12.4765625 13.49609375 C-14.18841124 14.79608774 -15.90066237 16.09555201 -17.61328125 17.39453125 C-18.49032715 18.06581055 -19.36737305 18.73708984 -20.27099609 19.42871094 C-23.60557135 21.95813381 -26.99023609 24.41403508 -30.37915039 26.86987305 C-50.40012984 40.12766468 -50.40012984 40.12766468 -64.6862793 58.3684082 C-65.13988508 60.47030069 -65.13988508 60.47030069 -63.83422852 62.08105469 C-63.28436279 62.60473633 -62.73449707 63.12841797 -62.16796875 63.66796875 C-61.28334961 64.52841797 -61.28334961 64.52841797 -60.38085938 65.40625 C-59.75244141 65.99277344 -59.12402344 66.57929687 -58.4765625 67.18359375 C-57.85201172 67.78558594 -57.22746094 68.38757813 -56.58398438 69.0078125 C-55.03827654 70.49452385 -53.4775393 71.96558025 -51.9140625 73.43359375 C-39.22564738 69.35184256 -30.08584914 55.03340822 -22.60839844 44.76025391 C-20.84065931 42.33279657 -19.05514075 39.91925365 -17.265625 37.5078125 C-14.86803031 34.27436494 -12.48324229 31.03215188 -10.109375 27.78125 C-8.17711035 25.13827391 -6.2231283 22.51835955 -4.21875 19.9296875 C-3.47882813 18.96160156 -2.73890625 17.99351563 -1.9765625 16.99609375 C-1.34878906 16.19300781 -0.72101563 15.38992187 -0.07421875 14.5625 C1.32391577 12.49658164 1.32391577 12.49658164 0.77734375 10.1484375 C0.43509766 9.29958984 0.43509766 9.29958984 0.0859375 8.43359375 C-2.36021112 7.52261661 -3.42688129 7.18972096 -5.81079102 8.38305664 Z M-70.9140625 66.43359375 C-71.2440625 67.42359375 -71.5740625 68.41359375 -71.9140625 69.43359375 C-68.2840625 73.06359375 -64.6540625 76.69359375 -60.9140625 80.43359375 C-59.9240625 80.10359375 -58.9340625 79.77359375 -57.9140625 79.43359375 C-59.44624935 75.80297708 -61.6323769 73.44721645 -64.4140625 70.68359375 C-65.208125 69.884375 -66.0021875 69.08515625 -66.8203125 68.26171875 C-68.70189712 66.21435766 -68.70189712 66.21435766 -70.9140625 66.43359375 Z M-82.9765625 75.43359375 C-83.89566406 75.80484375 -84.81476563 76.17609375 -85.76171875 76.55859375 C-86.47199219 76.84734375 -87.18226562 77.13609375 -87.9140625 77.43359375 C-87.3159375 78.25859375 -86.7178125 79.08359375 -86.1015625 79.93359375 C-84.39336687 82.42791401 -83.49414491 84.66144339 -82.6640625 87.55859375 C-81.79847678 90.07405281 -81.3006467 91.16704105 -79.08984375 92.69140625 C-77.69349294 93.34699425 -76.2814891 93.97032753 -74.85546875 94.55859375 C-72.32194995 95.70046138 -70.70789721 97.34078659 -68.9140625 99.43359375 C-68.4396875 98.23734375 -67.9653125 97.04109375 -67.4765625 95.80859375 C-67.20972656 95.13570312 -66.94289063 94.4628125 -66.66796875 93.76953125 C-66.41917969 92.99867187 -66.17039062 92.2278125 -65.9140625 91.43359375 C-65.59566406 90.48484375 -65.27726562 89.53609375 -64.94921875 88.55859375 C-64.90982921 85.05730149 -65.16958915 84.68638737 -67.40625 82.22265625 C-68.51639376 81.1496056 -69.64487823 80.09527077 -70.7890625 79.05859375 C-71.35753906 78.51332031 -71.92601562 77.96804687 -72.51171875 77.40625 C-77.0890031 73.06815865 -77.31409053 73.13993422 -82.9765625 75.43359375 Z M-93.9140625 84.43359375 C-96.13829299 88.03558645 -96.26853262 91.25529146 -96.4765625 95.43359375 C-96.67487273 99.25410112 -96.91714022 102.74523244 -97.9140625 106.43359375 C-94.99714725 106.4876107 -92.08123526 106.52727441 -89.1640625 106.55859375 C-88.3390625 106.57535156 -87.5140625 106.59210938 -86.6640625 106.609375 C-85.86484375 106.61582031 -85.065625 106.62226562 -84.2421875 106.62890625 C-83.14245605 106.6446167 -83.14245605 106.6446167 -82.02050781 106.66064453 C-79.61510174 106.40136919 -78.00154756 105.625853 -75.9140625 104.43359375 C-76.07705373 102.47467517 -76.07705373 102.47467517 -76.9140625 100.43359375 C-78.89787715 99.29701662 -78.89787715 99.29701662 -81.2890625 98.55859375 C-84.76637238 97.15334174 -85.71342139 96.73779156 -87.8515625 93.49609375 C-88.2021875 92.48546875 -88.5528125 91.47484375 -88.9140625 90.43359375 C-89.84151899 87.69584757 -89.84151899 87.69584757 -90.9140625 85.43359375 C-91.9040625 85.10359375 -92.8940625 84.77359375 -93.9140625 84.43359375 Z " fill="#66fcf1" transform="translate(185.9140625,5.56640625)"/>
<path d="M0 0 C3.85220735 2.64082139 6.37450751 5.81102252 7.86328125 10.27734375 C8.39750229 16.24623656 8.39634847 21.21328073 4.86328125 26.27734375 C0.60620214 30.43982111 -3.20368351 33.22065135 -9.3046875 33.30859375 C-15.9159062 32.86563102 -19.96335729 30.68566321 -24.44921875 25.71484375 C-27.8010723 20.87327752 -27.6165777 15.96456098 -27.13671875 10.27734375 C-25.10943253 4.3081121 -21.18872385 0.92073111 -15.69921875 -2.03515625 C-9.74952508 -3.63141553 -5.3004219 -2.89207486 0 0 Z M-17.13671875 7.33984375 C-19.53113233 10.85663869 -20.13671875 13.02961039 -20.13671875 17.27734375 C-18.56107376 20.92620583 -16.66922213 23.41296697 -13.13671875 25.27734375 C-8.98981395 25.64760311 -5.55277119 25.83938308 -2.13671875 23.27734375 C-0.0082339 20.54072038 0.80702895 18.72736218 1.23828125 15.27734375 C0.8102532 11.85311933 -0.07589809 10.02510462 -2.13671875 7.27734375 C-7.12237838 3.95357067 -12.18428494 3.93504551 -17.13671875 7.33984375 Z " fill="#66fcf1" transform="translate(86.13671875,45.72265625)"/>
<path d="M0 0 C2.31 0 4.62 0 7 0 C7 24.09 7 48.18 7 73 C4.69 73 2.38 73 0 73 C0 48.91 0 24.82 0 0 Z " fill="#66fcf1" transform="translate(168,59)"/>
<path d="M0 0 C1.9296875 0.7890625 1.9296875 0.7890625 3.9296875 2.7890625 C3.67891795 6.63958856 1.56357105 8.47107817 -1.1328125 11.0390625 C-1.86628906 11.74546875 -2.59976563 12.451875 -3.35546875 13.1796875 C-3.92136719 13.71078125 -4.48726562 14.241875 -5.0703125 14.7890625 C-6.7203125 13.4690625 -8.3703125 12.1490625 -10.0703125 10.7890625 C-8.78994263 6.43580495 -5.27663383 -0.5376193 0 0 Z " fill="#66fcf1" transform="translate(138.0703125,54.2109375)"/>
<path d="M0 0 C1.65 1.65 3.3 3.3 5 5 C3.37660195 6.70884005 1.70680947 8.37446717 0 10 C-0.66 10 -1.32 10 -2 10 C-3.625 8 -3.625 8 -5 6 C-3.63016497 2.83884224 -3.0109362 2.0072908 0 0 Z " fill="#66fcf1" transform="translate(147,45)"/>
<path d="M0 0 C2.31 0 4.62 0 7 0 C7 2.31 7 4.62 7 7 C4.69 7 2.38 7 0 7 C0 4.69 0 2.38 0 0 Z " fill="#66fcf1" transform="translate(65,18)"/>
<path d="M0 0 C2.31 0 4.62 0 7 0 C7 2.31 7 4.62 7 7 C4.69 7 2.38 7 0 7 C0 4.69 0 2.38 0 0 Z " fill="#66fcf1" transform="translate(53,18)"/>
<path d="M0 0 C2.31 0 4.62 0 7 0 C7 2.31 7 4.62 7 7 C4.69 7 2.38 7 0 7 C0 4.69 0 2.38 0 0 Z " fill="#66fcf1" transform="translate(40,18)"/>
</svg>